<svg width="128" height="136" viewBox="0 0 128 136" fill="none" xmlns="http://www.w3.org/2000/svg">
<rect x="20" y="12" width="96" height="96" rx="48" fill="#29845A" fill-opacity="0.1"/>
<rect x="28" y="20" width="80" height="80" rx="40" fill="#29845A"/>
<g filter="url(#filter0_dd_1691_1393)">
<rect x="28" y="20" width="80" height="80" rx="40" fill="#29845A" fill-opacity="0.01" shape-rendering="crispEdges"/>
</g>
<mask id="mask0_1691_1393" style="mask-type:alpha" maskUnits="userSpaceOnUse" x="47" y="39" width="42" height="42">
<rect x="47" y="39" width="42" height="42" fill="#D9D9D9"/>
</mask>
<g mask="url(#mask0_1691_1393)">
<path d="M65.55 63.15L61.7875 59.3875C61.4667 59.0667 61.0583 58.9062 60.5625 58.9062C60.0667 58.9062 59.6583 59.0667 59.3375 59.3875C59.0167 59.7083 58.8562 60.1167 58.8562 60.6125C58.8562 61.1083 59.0167 61.5167 59.3375 61.8375L64.325 66.825C64.675 67.175 65.0833 67.35 65.55 67.35C66.0167 67.35 66.425 67.175 66.775 66.825L76.6625 56.9375C76.9833 56.6167 77.1438 56.2083 77.1438 55.7125C77.1438 55.2167 76.9833 54.8083 76.6625 54.4875C76.3417 54.1667 75.9333 54.0063 75.4375 54.0063C74.9417 54.0063 74.5333 54.1667 74.2125 54.4875L65.55 63.15ZM68 77.5C65.5792 77.5 63.3042 77.0406 61.175 76.1219C59.0458 75.2031 57.1937 73.9563 55.6188 72.3813C54.0437 70.8063 52.7969 68.9542 51.8781 66.825C50.9594 64.6958 50.5 62.4208 50.5 60C50.5 57.5792 50.9594 55.3042 51.8781 53.175C52.7969 51.0458 54.0437 49.1937 55.6188 47.6188C57.1937 46.0437 59.0458 44.7969 61.175 43.8781C63.3042 42.9594 65.5792 42.5 68 42.5C70.4208 42.5 72.6958 42.9594 74.825 43.8781C76.9542 44.7969 78.8063 46.0437 80.3813 47.6188C81.9563 49.1937 83.2031 51.0458 84.1219 53.175C85.0406 55.3042 85.5 57.5792 85.5 60C85.5 62.4208 85.0406 64.6958 84.1219 66.825C83.2031 68.9542 81.9563 70.8063 80.3813 72.3813C78.8063 73.9563 76.9542 75.2031 74.825 76.1219C72.6958 77.0406 70.4208 77.5 68 77.5Z" fill="white"/>
</g>
<g filter="url(#filter1_f_1691_1393)">
<rect x="100" y="4" width="24" height="24" rx="12" fill="#29845A" fill-opacity="0.2"/>
</g>
<g filter="url(#filter2_f_1691_1393)">
<rect x="12" y="92" width="32" height="32" rx="16" fill="#29845A" fill-opacity="0.1"/>
</g>
<defs>
<filter id="filter0_dd_1691_1393" x="16" y="18" width="104" height="104" filterUnits="userSpaceOnUse" color-interpolation-filters="sRGB">
<feFlood flood-opacity="0" result="BackgroundImageFix"/>
<feColorMatrix in="SourceAlpha" type="matrix" values="0 0 0 0 0 0 0 0 0 0 0 0 0 0 0 0 0 0 127 0" result="hardAlpha"/>
<feMorphology radius="4" operator="erode" in="SourceAlpha" result="effect1_dropShadow_1691_1393"/>
<feOffset dy="4"/>
<feGaussianBlur stdDeviation="3"/>
<feComposite in2="hardAlpha" operator="out"/>
<feColorMatrix type="matrix" values="0 0 0 0 0 0 0 0 0 0 0 0 0 0 0 0 0 0 0.2 0"/>
<feBlend mode="normal" in2="BackgroundImageFix" result="effect1_dropShadow_1691_1393"/>
<feColorMatrix in="SourceAlpha" type="matrix" values="0 0 0 0 0 0 0 0 0 0 0 0 0 0 0 0 0 0 127 0" result="hardAlpha"/>
<feMorphology radius="3" operator="erode" in="SourceAlpha" result="effect2_dropShadow_1691_1393"/>
<feOffset dy="10"/>
<feGaussianBlur stdDeviation="7.5"/>
<feComposite in2="hardAlpha" operator="out"/>
<feColorMatrix type="matrix" values="0 0 0 0 0 0 0 0 0 0 0 0 0 0 0 0 0 0 0.2 0"/>
<feBlend mode="normal" in2="effect1_dropShadow_1691_1393" result="effect2_dropShadow_1691_1393"/>
<feBlend mode="normal" in="SourceGraphic" in2="effect2_dropShadow_1691_1393" result="shape"/>
</filter>
<filter id="filter1_f_1691_1393" x="96" y="0" width="32" height="32" filterUnits="userSpaceOnUse" color-interpolation-filters="sRGB">
<feFlood flood-opacity="0" result="BackgroundImageFix"/>
<feBlend mode="normal" in="SourceGraphic" in2="BackgroundImageFix" result="shape"/>
<feGaussianBlur stdDeviation="2" result="effect1_foregroundBlur_1691_1393"/>
</filter>
<filter id="filter2_f_1691_1393" x="0" y="80" width="56" height="56" filterUnits="userSpaceOnUse" color-interpolation-filters="sRGB">
<feFlood flood-opacity="0" result="BackgroundImageFix"/>
<feBlend mode="normal" in="SourceGraphic" in2="BackgroundImageFix" result="shape"/>
<feGaussianBlur stdDeviation="6" result="effect1_foregroundBlur_1691_1393"/>
</filter>
</defs>
</svg>
